<svg xmlns="http://www.w3.org/2000/svg" width="420" height="520" viewBox="0 0 420 520" role="img" aria-labelledby="title desc">
<title id="title">Sewer Cap Collector Frame</title><desc id="desc">Editable SVG component</desc>
<style>.display{font-family:Impact,'Arial Narrow',sans-serif;font-weight:900;letter-spacing:.4px} .sans{font-family:Arial,Helvetica,sans-serif} .serif{font-family:Georgia,'Times New Roman',serif} .small{font-size:8px} .edit{fill:#143F2C}</style>
<rect width="420" height="520" fill="#EDE0B3"/><g opacity=".08" stroke="#171812" stroke-width=".5"><line x1="8" y1="12" x2="412" y2="12"/><line x1="8" y1="30" x2="412" y2="30"/><line x1="8" y1="48" x2="412" y2="48"/><line x1="8" y1="66" x2="412" y2="66"/><line x1="8" y1="84" x2="412" y2="84"/><line x1="8" y1="102" x2="412" y2="102"/><line x1="8" y1="120" x2="412" y2="120"/><line x1="8" y1="138" x2="412" y2="138"/><line x1="8" y1="156" x2="412" y2="156"/><line x1="8" y1="174" x2="412" y2="174"/><line x1="8" y1="192" x2="412" y2="192"/><line x1="8" y1="210" x2="412" y2="210"/><line x1="8" y1="228" x2="412" y2="228"/><line x1="8" y1="246" x2="412" y2="246"/><line x1="8" y1="264" x2="412" y2="264"/><line x1="8" y1="282" x2="412" y2="282"/><line x1="8" y1="300" x2="412" y2="300"/><line x1="8" y1="318" x2="412" y2="318"/><line x1="8" y1="336" x2="412" y2="336"/><line x1="8" y1="354" x2="412" y2="354"/><line x1="8" y1="372" x2="412" y2="372"/><line x1="8" y1="390" x2="412" y2="390"/><line x1="8" y1="408" x2="412" y2="408"/><line x1="8" y1="426" x2="412" y2="426"/><line x1="8" y1="444" x2="412" y2="444"/><line x1="8" y1="462" x2="412" y2="462"/><line x1="8" y1="480" x2="412" y2="480"/><line x1="8" y1="498" x2="412" y2="498"/><line x1="8" y1="516" x2="412" y2="516"/></g><rect x="14" y="14" rx="18" width="392" height="492" fill="none" stroke="#171812" stroke-width="6"/><rect x="30" y="30" width="360" height="55" fill="#8C2118"/><text x="210" y="68" text-anchor="middle" class="display" font-size="28" fill="#FFFDF3">SEWER CAP FILE</text><circle cx="210" cy="250" r="130" fill="none" stroke="#143F2C" stroke-width="4" stroke-dasharray="8 6"/><text x="210" y="250" text-anchor="middle" class="sans edit" font-size="15">[[PLACE CAP ART HERE]]</text><text x="42" y="425" class="display" font-size="22" fill="#171812">#[[NUMBER]] — [[NAME]]</text><text x="42" y="455" class="serif" font-size="13" fill="#171812">[[LORE / LOCATION / ISSUE NOTE]]</text><text x="42" y="486" class="sans" font-size="9" fill="#143F2C">COLLECT • CLIP • TRADE • DO NOT FEED TO ALLIGATORS</text></svg>