<svg xmlns="http://www.w3.org/2000/svg" width="300" height="300" viewBox="0 0 300 300" role="img" aria-labelledby="title desc">
<title id="title">Blank Sewer Cap Collectible</title><desc id="desc">Editable SVG component</desc>
<style>.display{font-family:Impact,'Arial Narrow',sans-serif;font-weight:900;letter-spacing:.4px} .sans{font-family:Arial,Helvetica,sans-serif} .serif{font-family:Georgia,'Times New Roman',serif} .small{font-size:8px} .edit{fill:#143F2C}</style>
<rect width="300" height="300" fill="#EDE0B3"/><g opacity=".08" stroke="#171812" stroke-width=".5"><line x1="8" y1="12" x2="292" y2="12"/><line x1="8" y1="30" x2="292" y2="30"/><line x1="8" y1="48" x2="292" y2="48"/><line x1="8" y1="66" x2="292" y2="66"/><line x1="8" y1="84" x2="292" y2="84"/><line x1="8" y1="102" x2="292" y2="102"/><line x1="8" y1="120" x2="292" y2="120"/><line x1="8" y1="138" x2="292" y2="138"/><line x1="8" y1="156" x2="292" y2="156"/><line x1="8" y1="174" x2="292" y2="174"/><line x1="8" y1="192" x2="292" y2="192"/><line x1="8" y1="210" x2="292" y2="210"/><line x1="8" y1="228" x2="292" y2="228"/><line x1="8" y1="246" x2="292" y2="246"/><line x1="8" y1="264" x2="292" y2="264"/><line x1="8" y1="282" x2="292" y2="282"/></g><circle cx="150" cy="150" r="128" fill="none" stroke="#171812" stroke-width="3" stroke-dasharray="7 5"/><circle cx="150" cy="150" r="112" fill="#143F2C" stroke="#171812" stroke-width="5"/><circle cx="150" cy="150" r="82" fill="none" stroke="#D29E2E" stroke-width="5"/><path d="M91 150h118M150 91v118M108 108l84 84M192 108l-84 84" stroke="#171812" stroke-width="3" opacity=".55"/><text x="150" y="137" text-anchor="middle" class="display" font-size="24" fill="#D29E2E">SEWER CAP</text><text x="150" y="170" text-anchor="middle" class="display edit" font-size="30">#[[NUMBER]]</text><text x="150" y="198" text-anchor="middle" class="sans" font-size="10" fill="#FFFDF3">[[ISSUE]] • [[RARITY]]</text></svg>