<svg xmlns="http://www.w3.org/2000/svg" width="340" height="180" viewBox="0 0 340 180" role="img" aria-labelledby="title desc">
<title id="title">COMMUNITY CALENDAR</title><desc id="desc">Editable SVG component</desc>
<style>.display{font-family:Impact,'Arial Narrow',sans-serif;font-weight:900;letter-spacing:.4px} .sans{font-family:Arial,Helvetica,sans-serif} .serif{font-family:Georgia,'Times New Roman',serif} .small{font-size:8px} .edit{fill:#143F2C}</style>
<rect width="340" height="180" fill="#EDE0B3"/><g opacity=".08" stroke="#171812" stroke-width=".5"><line x1="8" y1="12" x2="332" y2="12"/><line x1="8" y1="30" x2="332" y2="30"/><line x1="8" y1="48" x2="332" y2="48"/><line x1="8" y1="66" x2="332" y2="66"/><line x1="8" y1="84" x2="332" y2="84"/><line x1="8" y1="102" x2="332" y2="102"/><line x1="8" y1="120" x2="332" y2="120"/><line x1="8" y1="138" x2="332" y2="138"/><line x1="8" y1="156" x2="332" y2="156"/><line x1="8" y1="174" x2="332" y2="174"/></g><rect x="3" y="3" rx="10" width="334" height="174" fill="#D9C99B" stroke="#171812" stroke-width="3"/><rect x="3" y="3" width="334" height="38" fill="#8C2118"/><text x="18" y="30" class="display" font-size="22" fill="#FFFDF3">COMMUNITY CALENDAR</text><text x="315" y="29" text-anchor="end" font-size="22">▦</text><text x="20" y="64" class="serif" font-style="italic" font-size="11" fill="#171812">What’s happening below street level.</text><text x="20" y="92" class="sans" font-size="11" fill="#171812">Date:</text><text x="112" y="92" class="sans edit" font-weight="bold" font-size="11">[[DATE]]</text><text x="20" y="114" class="sans" font-size="11" fill="#171812">Event:</text><text x="112" y="114" class="sans edit" font-weight="bold" font-size="11">[[EVENT]]</text><text x="20" y="136" class="sans" font-size="11" fill="#171812">Place:</text><text x="112" y="136" class="sans edit" font-weight="bold" font-size="11">[[PLACE]]</text></svg>