<svg xmlns="http://www.w3.org/2000/svg" width="420" height="260" viewBox="0 0 420 260" role="img" aria-labelledby="title desc">
<title id="title">Tony's Pizza Master Ad</title><desc id="desc">Vector master with editable copy fields</desc>
<style>.display{font-family:Impact,'Arial Narrow',sans-serif;font-weight:900;letter-spacing:.4px} .sans{font-family:Arial,Helvetica,sans-serif} .serif{font-family:Georgia,'Times New Roman',serif} .small{font-size:8px} .edit{fill:#143F2C}</style>
<rect width="420" height="260" fill="#EDE0B3"/><g opacity=".08" stroke="#171812" stroke-width=".5"><line x1="8" y1="12" x2="412" y2="12"/><line x1="8" y1="30" x2="412" y2="30"/><line x1="8" y1="48" x2="412" y2="48"/><line x1="8" y1="66" x2="412" y2="66"/><line x1="8" y1="84" x2="412" y2="84"/><line x1="8" y1="102" x2="412" y2="102"/><line x1="8" y1="120" x2="412" y2="120"/><line x1="8" y1="138" x2="412" y2="138"/><line x1="8" y1="156" x2="412" y2="156"/><line x1="8" y1="174" x2="412" y2="174"/><line x1="8" y1="192" x2="412" y2="192"/><line x1="8" y1="210" x2="412" y2="210"/><line x1="8" y1="228" x2="412" y2="228"/><line x1="8" y1="246" x2="412" y2="246"/></g><rect x="3" y="3" width="414" height="254" fill="none" stroke="#171812" stroke-width="4"/><rect x="3" y="3" width="414" height="52" fill="#8C2118"/>
<text x="210" y="41" text-anchor="middle" class="display" font-size="32" fill="#FFFDF3">TONY’S PIZZA</text>
<g id="editable-pizza-art" transform="translate(34 76)"><path d="M10 116 L74 10 L144 120 Z" fill="#D29E2E" stroke="#171812" stroke-width="5"/><path d="M72 12 Q108 3 146 23" fill="none" stroke="#8C2118" stroke-width="18" stroke-linecap="round"/><circle cx="76" cy="62" r="12" fill="#8C2118"/><circle cx="111" cy="89" r="12" fill="#8C2118"/><path d="M44 92 q12-20 25 0" fill="none" stroke="#143F2C" stroke-width="7"/></g>
<text x="188" y="98" class="display" font-size="24" fill="#171812">HOT PIZZA.</text><text x="188" y="126" class="display" font-size="24" fill="#171812">COLD SODA.</text><text x="188" y="154" class="display" font-size="24" fill="#171812">GOOD PEOPLE.</text>
<text x="188" y="184" class="sans edit" font-weight="bold" font-size="13">[[ADDRESS]]</text><text x="188" y="207" class="sans edit" font-weight="bold" font-size="13">[[OFFER]]</text><rect x="188" y="220" width="196" height="22" fill="#143F2C"/><text x="286" y="236" text-anchor="middle" class="sans" font-size="10" font-weight="bold" fill="#FFFDF3">[[COUPON_CODE]]</text></svg>