<svg xmlns="http://www.w3.org/2000/svg" width="720" height="520" viewBox="0 0 720 520" role="img" aria-labelledby="title desc">
<title id="title">Typography Styles</title><desc id="desc">Editable SVG component</desc>
<style>.display{font-family:Impact,'Arial Narrow',sans-serif;font-weight:900;letter-spacing:.4px} .sans{font-family:Arial,Helvetica,sans-serif} .serif{font-family:Georgia,'Times New Roman',serif} .small{font-size:8px} .edit{fill:#143F2C}</style>
<rect width="720" height="520" fill="#EDE0B3"/><g opacity=".08" stroke="#171812" stroke-width=".5"><line x1="8" y1="12" x2="712" y2="12"/><line x1="8" y1="30" x2="712" y2="30"/><line x1="8" y1="48" x2="712" y2="48"/><line x1="8" y1="66" x2="712" y2="66"/><line x1="8" y1="84" x2="712" y2="84"/><line x1="8" y1="102" x2="712" y2="102"/><line x1="8" y1="120" x2="712" y2="120"/><line x1="8" y1="138" x2="712" y2="138"/><line x1="8" y1="156" x2="712" y2="156"/><line x1="8" y1="174" x2="712" y2="174"/><line x1="8" y1="192" x2="712" y2="192"/><line x1="8" y1="210" x2="712" y2="210"/><line x1="8" y1="228" x2="712" y2="228"/><line x1="8" y1="246" x2="712" y2="246"/><line x1="8" y1="264" x2="712" y2="264"/><line x1="8" y1="282" x2="712" y2="282"/><line x1="8" y1="300" x2="712" y2="300"/><line x1="8" y1="318" x2="712" y2="318"/><line x1="8" y1="336" x2="712" y2="336"/><line x1="8" y1="354" x2="712" y2="354"/><line x1="8" y1="372" x2="712" y2="372"/><line x1="8" y1="390" x2="712" y2="390"/><line x1="8" y1="408" x2="712" y2="408"/><line x1="8" y1="426" x2="712" y2="426"/><line x1="8" y1="444" x2="712" y2="444"/><line x1="8" y1="462" x2="712" y2="462"/><line x1="8" y1="480" x2="712" y2="480"/><line x1="8" y1="498" x2="712" y2="498"/><line x1="8" y1="516" x2="712" y2="516"/></g><g fill="#171812"><text x="28" y="64" class="display" font-size="50">DISPLAY HEADLINE</text>
<text x="28" y="108" class="display" font-size="28">SECTION HEADER</text><line x1="28" y1="116" x2="692" y2="116" stroke="#8C2118" stroke-width="4"/>
<text x="28" y="158" class="serif" font-weight="bold" font-size="25">Article Title / Deck</text>
<rect x="28" y="182" width="280" height="30" fill="#8C2118"/><text x="168" y="203" text-anchor="middle" fill="#FFFDF3" class="display" font-size="17">SIDEBAR HEADER</text>
<text x="28" y="250" class="serif" font-size="15">Body Copy. Direct, local, lightly weathered.</text>
<text x="28" y="282" class="serif" font-size="12" font-style="italic">Caption / photo credit / archival note.</text>
<text x="28" y="314" class="sans" font-size="9">FINE PRINT • ISSUE DATA • LEGAL • SOURCE</text>
<text x="28" y="362" class="display" font-size="34" fill="#8C2118">COUPON TEXT</text>
<text x="28" y="404" class="sans" font-weight="bold" font-size="13" fill="#143F2C">Editable text remains live. Convert to outlines only at final press handoff.</text>
<text x="28" y="448" class="sans" font-size="11">Fallback stack: Impact / Arial Narrow / Georgia / Arial</text></g></svg>